<svg width="265" height="194" viewBox="0 0 265 194" fill="none" xmlns="http://www.w3.org/2000/svg">
<circle cx="126.1" cy="87.0523" r="86.3524" fill="#B5D3DD"/>
<path d="M169.448 153.877C167.302 155.172 162.971 152.085 158.728 150.657C154.686 149.297 147.459 145.583 146.783 145.234C146.745 145.215 146.714 145.199 146.676 145.181C145.144 144.431 142.237 142.07 141.681 140.226C141.459 139.49 142.079 138.875 142.758 138.515L145.753 136.929C146.433 136.569 146.937 135.959 147.467 135.402C148.476 134.342 150.048 133.95 151.467 134.482C151.666 134.556 151.844 134.666 152.017 134.787C153.543 135.859 161.485 141.345 165.593 142.312C170.151 143.385 172.886 145.136 172.302 148.769C171.718 152.402 171.595 152.582 169.448 153.877Z" fill="#2F363E"/>
<path d="M161.888 163.974C170.708 165.739 175.87 170.958 174.488 176.117C173.105 181.277 166.274 182.765 157.296 180.24C148.317 177.715 144.639 174.315 146.022 169.156C147.404 163.997 153.067 162.21 161.888 163.974Z" fill="#2F363E"/>
<path d="M102.371 168.779C101.985 156.828 106.226 145.263 114.322 136.782C122.417 128.301 133.982 130.229 140.921 131.771C147.86 133.313 154.799 133.313 159.04 145.649C163.28 157.985 162.895 166.851 159.811 173.405C156.727 179.958 145.162 186.512 131.669 186.897C118.177 187.283 102.756 180.729 102.371 168.779Z" fill="#D9DCE5"/>
<mask id="mask0_1219_9892" style="mask-type:alpha" maskUnits="userSpaceOnUse" x="100" y="130" width="64" height="57">
<path d="M101.986 170.321C99.2102 159.218 100.443 142.565 108.924 135.24C117.405 127.916 137.452 129.843 148.631 132.156C159.811 134.469 160.582 137.939 162.895 146.805C165.208 155.672 162.895 166.851 159.811 173.405C156.727 179.958 145.162 186.512 131.669 186.897C118.177 187.283 105.455 184.199 101.986 170.321Z" fill="#D9DCE5"/>
</mask>
<g mask="url(#mask0_1219_9892)">
</g>
<mask id="mask1_1219_9892" style="mask-type:alpha" maskUnits="userSpaceOnUse" x="102" y="130" width="62" height="57">
<path d="M102.371 168.779C101.985 156.828 106.226 145.263 114.322 136.782C122.417 128.301 137.452 129.843 148.632 132.156C159.811 134.469 160.582 137.939 162.895 146.805C165.208 155.672 162.895 166.851 159.811 173.405C156.727 179.958 145.162 186.512 131.669 186.897C118.177 187.283 102.756 180.729 102.371 168.779Z" fill="#D9DCE5"/>
</mask>
<g mask="url(#mask1_1219_9892)">
</g>
<mask id="mask2_1219_9892" style="mask-type:alpha" maskUnits="userSpaceOnUse" x="102" y="130" width="61" height="57">
<path d="M102.371 168.779C101.985 156.828 106.226 145.263 114.322 136.782C122.417 128.301 133.982 130.229 140.921 131.771C147.86 133.313 154.799 133.313 159.04 145.649C163.28 157.985 162.895 166.851 159.811 173.405C156.727 179.958 145.162 186.512 131.669 186.897C118.177 187.283 102.756 180.729 102.371 168.779Z" fill="#D9DCE5"/>
</mask>
<g mask="url(#mask2_1219_9892)">
<path d="M103.142 127.916C100.366 116.813 100.616 101.088 109.097 93.7637C117.578 86.4392 137.624 88.3667 148.804 90.6797C159.983 92.9927 160.754 96.4622 163.067 105.329C165.38 114.195 165.979 119.82 161.738 131.771C157.498 143.721 147.475 146.805 136.894 147.576C126.313 148.347 106.611 141.794 103.142 127.916Z" fill="#2F363E"/>
</g>
<ellipse cx="160.261" cy="111.799" rx="6.66709" ry="5.55591" transform="rotate(13.3553 160.261 111.799)" fill="#556270"/>
<path d="M164.991 96.7322L159.425 112.161L162.668 112.931L164.991 96.7322Z" fill="#556270"/>
<path d="M137.572 172.7C147.219 172.053 154.029 176.195 154.029 182.164C154.029 188.134 147.352 191.717 137.33 191.588C127.308 191.46 122.545 188.854 122.545 182.884C122.545 176.914 127.926 173.348 137.572 172.7Z" fill="#2F363E"/>
<path d="M176.773 147.24C179.63 148 182.225 151.073 181.399 154.179C180.573 157.284 176.47 158.769 173.613 158.009C170.756 157.249 168.932 152.634 169.758 149.528C170.584 146.423 173.916 146.48 176.773 147.24Z" fill="#2F363E"/>
<path d="M169.938 157.619C170.938 157.255 171.743 155.883 172.766 153.351C173.789 150.818 174.613 148.03 174.754 146.93C174.896 145.83 174.669 144.722 173.015 144.758C171.361 144.794 170.472 148.327 169.723 149.991C168.973 151.655 167.898 154.917 168.005 155.932C168.113 156.946 168.938 157.982 169.938 157.619Z" fill="#556270"/>
<path d="M159.039 165.695C156.674 166.661 143.619 167.622 136.295 164.538C129.773 161.792 122.593 154.461 121.098 152.887C120.906 152.686 120.691 152.518 120.494 152.32C119.162 150.977 119.717 148.063 120.816 146.449L123.274 142.839C124.37 141.229 126.486 140.728 128.17 141.612C128.428 141.747 128.643 141.946 128.842 142.158C130.15 143.55 135.597 149.13 141.306 151.817C147.86 154.901 151.329 151.431 156.726 152.202C162.123 152.973 164.053 156.732 162.894 160.298C161.735 163.864 161.403 164.728 159.039 165.695Z" fill="#2F363E"/>
<path d="M169.063 151.407C171.92 152.166 174.129 156.782 173.303 159.888C172.477 162.993 167.294 163.732 164.437 162.972C161.579 162.212 159.756 157.596 160.582 154.491C161.408 151.385 166.205 150.647 169.063 151.407Z" fill="#2F363E"/>
<path d="M163.661 164.242C164.324 163.41 164.295 161.82 163.846 159.126C163.397 156.432 162.645 153.623 162.192 152.611C161.739 151.599 160.968 150.772 159.575 151.666C158.183 152.56 159.269 156.037 159.497 157.848C159.726 159.658 160.511 163.002 161.132 163.812C161.753 164.621 162.998 165.074 163.661 164.242Z" fill="#556270"/>
<path d="M140.028 92.4396C140.715 82.8622 145.724 76.7327 151.596 77.5524C157.468 78.372 159.492 89.9422 158.573 95.2715C157.654 100.601 154.043 105.321 148.882 106.405C143.722 107.489 139.34 102.017 140.028 92.4396Z" fill="#2F363E"/>
<path d="M119.333 152.973C120.453 152.872 121.939 150.163 124.068 147.869C126.197 145.575 128.251 142.968 128.887 141.89C129.523 140.812 129.349 138.763 126.65 138.763C123.952 138.763 122.417 139.384 120.489 141.408C118.562 143.432 117.405 145.556 117.02 147.869C116.634 150.182 118.212 153.074 119.333 152.973Z" fill="#556270"/>
<path d="M164.383 114.237C167.077 130.099 157.397 138.71 135.043 138.71C112.689 138.71 101.523 130.936 102.421 116.956C103.319 102.976 114.544 85.6861 132.504 84.7797C150.464 83.8733 161.689 98.3755 164.383 114.237Z" fill="#D9DCE5"/>
<mask id="mask3_1219_9892" style="mask-type:alpha" maskUnits="userSpaceOnUse" x="102" y="84" width="64" height="55">
<path d="M164.574 114.102C167.259 129.766 157.61 138.27 135.328 138.27C113.046 138.27 101.916 130.593 102.811 116.787C103.706 102.981 114.895 85.9054 132.797 85.0103C150.7 84.1152 161.889 98.4371 164.574 114.102Z" fill="#D9DCE5"/>
</mask>
<g mask="url(#mask3_1219_9892)">
<path d="M164.179 125.56C165.522 130.214 164.179 133.794 157.465 133.347C150.207 136.25 144.733 134.839 145.381 126.186C146.713 121.151 148.999 117.892 154.333 117.682C159.704 117.145 162.836 120.907 164.179 125.56Z" fill="#CACEDA" fill-opacity="0.54"/>
<path d="M150.7 128.871C156.071 131.109 157.859 127.427 156.518 125.738C156.461 127.894 160.546 129.319 160.994 125.291" stroke="#2F363E" stroke-width="1.1565" stroke-linecap="round"/>
<path d="M158.756 122.158C159.057 123.665 158.308 124.843 156.07 125.738C153.833 126.633 152.039 125.514 151.738 124.006C151.438 122.499 152.765 120.964 154.702 120.577C156.64 120.19 158.455 120.651 158.756 122.158Z" fill="#2F363E"/>
<path d="M155.532 113.094C151.714 110.053 155.883 98.8846 161.701 103.36C167.519 107.836 165.917 109.626 164.574 114.997C163.232 120.367 159.096 117.094 158.613 116.042C158.161 115.058 156.564 113.916 155.532 113.094Z" fill="#2F363E"/>
<g filter="url(#filter0_d_1219_9892)">
<path d="M163.081 111.697L161.35 107.386C160.889 106.236 160.161 106.64 159.855 106.985L157.213 110.859C156.697 111.59 158.113 112.29 158.629 111.559L160.271 109.021L161.644 112.274C162.082 113.033 163.519 112.456 163.081 111.697Z" fill="#D9DCE5"/>
</g>
</g>
<path d="M146.672 114.997C150.799 111.709 147.077 99.4129 138.168 103.36C134.76 104.772 130.551 110.618 134.53 116.375C139.503 123.571 143.201 120.431 143.724 119.294C144.212 118.23 145.556 115.886 146.672 114.997Z" fill="#2F363E"/>
<path d="M116.674 87.6314C122.069 79.6885 129.476 76.8947 134.146 80.547C138.817 84.1994 134.769 95.2257 131.302 99.3767C127.836 103.528 122.345 105.803 117.337 104.154C112.328 102.506 111.279 95.5743 116.674 87.6314Z" fill="#2F363E"/>
<g filter="url(#filter1_d_1219_9892)">
<path d="M144.72 112.883L140.972 108.513C139.973 107.347 139.279 108.111 139.057 108.638L137.5 114.236C137.185 115.299 139.125 115.557 139.44 114.494L140.356 110.861L143.263 114.133C144.079 114.848 145.536 113.599 144.72 112.883Z" fill="#D9DCE5"/>
</g>
<path d="M172.147 170.321L145.161 180.729L175.616 189.596L200.288 176.103L172.147 170.321Z" fill="#556270"/>
<path d="M174.487 190.733C165.459 188.412 149.827 184.32 145.365 182.889C144.691 182.672 144.417 181.973 144.69 181.32C144.958 180.679 145.655 180.332 146.328 180.505L175.203 187.928C176.09 188.156 176.545 189.141 176.144 189.965C175.843 190.582 175.153 190.904 174.487 190.733Z" fill="#D9DCE5"/>
<path d="M193.233 165.072C188.901 170.59 178.453 183.69 174.46 189.21C173.943 189.925 174.845 190.367 175.616 190.367C176.383 190.367 200.249 176.724 200.522 176.568C200.531 176.563 200.529 176.564 200.538 176.56C200.63 176.509 200.712 176.439 200.777 176.356L217.398 154.538C217.887 153.906 217.211 153.038 216.479 153.359L193.526 164.846C193.41 164.897 193.311 164.972 193.233 165.072Z" fill="#D9DCE5"/>
<path d="M144.604 181.115L176.215 188.439L216.693 154.13C215.879 153.504 210.525 140.637 210.525 140.637C210.525 140.637 176.215 136.397 161.566 144.492C146.917 152.588 152.442 170.835 144.604 181.115Z" fill="url(#paint0_linear_1219_9892)"/>
<ellipse cx="116.685" cy="117.235" rx="8.05607" ry="6.71339" fill="#556270"/>
<path d="M116.238 97.9895L114 117.682H118.028L116.238 97.9895Z" fill="#556270"/>
<path d="M93.2654 140.377C79.4695 138.22 66.9144 134.19 54.984 124.785C43.0536 115.379 18.2808 155.962 32.2842 155.059C46.2875 154.155 47.1171 155.624 56.7311 154.95C68.798 143.91 81.1042 144.853 93.2654 140.377Z" fill="#4654CE"/>
<rect x="0.229553" y="118.589" width="61.1903" height="44.7182" rx="13.8781" transform="rotate(-5.63823 0.229553 118.589)" fill="#4654CE"/>
<mask id="mask4_1219_9892" style="mask-type:alpha" maskUnits="userSpaceOnUse" x="1" y="113" width="93" height="49">
<path d="M93.2654 140.377C79.4695 138.22 66.9144 134.19 54.984 124.785C43.0536 115.379 18.2808 155.962 32.2842 155.059C46.2875 154.155 47.1171 155.624 56.7311 154.95C68.798 143.91 81.1042 144.853 93.2654 140.377Z" fill="#4654CE"/>
<rect x="0.229553" y="118.589" width="61.1903" height="44.7182" rx="13.8781" transform="rotate(-5.63823 0.229553 118.589)" fill="#4654CE"/>
</mask>
<g mask="url(#mask4_1219_9892)">
<path fill-rule="evenodd" clip-rule="evenodd" d="M23.624 112.186L22.7376 110.408C22.2193 109.368 21.01 108.874 19.9122 109.254L-7.04481 118.584C-8.24344 118.999 -8.88406 120.302 -8.48053 121.505L-4.67686 132.839C-4.44918 133.518 -3.92015 134.053 -3.24419 134.288L-1.44306 134.914L23.624 112.186ZM0.0578682 137.089L6.19865 134.764C6.50603 134.647 6.78506 134.467 7.01713 134.234L24.2431 116.959C24.9442 116.256 25.1181 115.184 24.6752 114.295L24.5202 113.984L0.0578682 137.089Z" fill="#3D49C7"/>
<path d="M23.624 112.186L-1.44306 134.914L0.0578682 137.089L24.5202 113.984L23.624 112.186Z" fill="#3D49C7"/>
<g filter="url(#filter2_d_1219_9892)">
<rect x="20.8599" y="113.266" width="2.58073" height="33.0049" transform="rotate(47.3848 20.8599 113.266)" fill="#8FA8FF"/>
</g>
<path d="M28.953 157.214L40.518 156.057L47.0715 152.588L52.4686 152.202L54.396 154.13L48.6135 164.538L40.518 168.779C33.9645 168.907 20.4719 169.087 18.9299 168.779C17.0024 168.393 3.12432 164.153 0.42581 162.225C-1.733 160.683 2.73891 157.856 2.3534 155.286L10.4489 157.985L16.617 156.443L28.953 157.214Z" fill="#6376E0"/>
<path d="M52.083 151.431L48.999 161.454L61.3351 162.611L92.9462 156.057L102.584 139.481L90.2477 136.011L75.2131 140.637L64.0336 139.481L61.3351 146.42L52.083 151.431Z" fill="#3D49C7"/>
<path d="M56.7882 105.188C62.6344 106.551 66.3349 112.73 64.8445 119.123C63.3541 125.516 57.3027 129.421 51.4566 128.059C45.6104 126.696 41.9098 120.517 43.4002 114.124C44.8906 107.731 50.942 103.826 56.7882 105.188Z" stroke="#343FC0" stroke-width="2.9281"/>
<path d="M64.4042 115.706C68.6606 116.699 71.3629 121.201 70.2749 125.868C69.1868 130.535 64.7722 133.378 60.5159 132.385C56.2596 131.393 53.5573 126.891 54.6453 122.224C55.7333 117.557 60.1479 114.714 64.4042 115.706Z" stroke="#6376E0" stroke-width="2.31301"/>
<path opacity="0.5" d="M1.34583 143.457C1.56205 142.918 2.08443 142.565 2.66522 142.565L3.55659 142.565C3.9244 142.565 4.2779 142.707 4.54281 142.962L5.55422 143.937C6.11773 144.479 5.99801 145.412 5.31567 145.795C5.12564 145.902 4.90955 145.953 4.69187 145.943L2.42682 145.841C1.44879 145.797 0.807139 144.8 1.17162 143.891L1.34583 143.457Z" fill="#343FC0"/>
<path opacity="0.5" d="M5.55963 148.864C5.77585 148.325 6.29824 147.972 6.87903 147.972L7.7704 147.972C8.13821 147.972 8.49171 148.114 8.75661 148.37L9.76802 149.344C10.3315 149.887 10.2118 150.819 9.52948 151.202C9.33945 151.309 9.12336 151.36 8.90567 151.35L6.64063 151.248C5.6626 151.204 5.02094 150.207 5.38543 149.299L5.55963 148.864Z" fill="#343FC0"/>
<path opacity="0.5" d="M8.69202 143.457C8.90824 142.918 9.43062 142.565 10.0114 142.565L10.9028 142.565C11.2706 142.565 11.6241 142.707 11.889 142.962L12.9004 143.937C13.4639 144.479 13.3442 145.412 12.6619 145.795C12.4718 145.902 12.2557 145.953 12.0381 145.943L9.77301 145.841C8.79498 145.797 8.15333 144.8 8.51781 143.891L8.69202 143.457Z" fill="#343FC0"/>
</g>
<g filter="url(#filter3_d_1219_9892)">
<ellipse cx="30.7622" cy="130.581" rx="6.52041" ry="6.52041" fill="#8FA8FF"/>
<path d="M18.8984 152.588C18.2483 146.464 22.6854 140.973 28.809 140.323L35.1607 139.649C41.2842 138.999 46.7753 143.436 47.4254 149.559L18.8984 152.588Z" fill="#8FA8FF"/>
</g>
<path d="M108.367 84.3538C108.367 84.3538 92.9468 77.4148 80.9957 56.2122C69.0446 35.0096 38.2051 79.3423 58.6367 78.9568C79.0683 78.5713 108.367 84.3538 108.367 84.3538Z" fill="#931621"/>
<rect x="5.05219" y="42.5264" width="76.3293" height="44.7182" rx="13.8781" transform="rotate(-8.86076 5.05219 42.5264)" fill="#931621"/>
<mask id="mask5_1219_9892" style="mask-type:alpha" maskUnits="userSpaceOnUse" x="7" y="32" width="102" height="53">
<path d="M108.367 84.3538C108.367 84.3538 92.9468 77.4148 80.9957 56.2122C69.0446 35.0096 38.2051 79.3423 58.6367 78.9568C79.0683 78.5713 108.367 84.3538 108.367 84.3538Z" fill="#931621"/>
<rect x="5.05219" y="42.5264" width="76.3293" height="44.7182" rx="13.8781" transform="rotate(-8.86076 5.05219 42.5264)" fill="#931621"/>
</mask>
<g mask="url(#mask5_1219_9892)">
<path d="M20.4722 41.5631C20.4722 50.7372 12.5593 58.5251 2.3536 58.5251C-7.85206 58.5251 -15.765 50.7372 -15.765 41.5631C-15.765 32.3889 -7.85206 24.601 2.3536 24.601C12.5593 24.601 20.4722 32.3889 20.4722 41.5631Z" stroke="#780001" stroke-width="7.71003"/>
<path d="M56.816 21.9742C66.308 27.8073 82.7586 56.757 91.807 63.6447C83.0486 70.1682 58.9982 45.1259 49.2575 51.6414C48.8194 38.701 56.8239 34.2334 56.816 21.9742Z" fill="#C10F1F"/>
<g filter="url(#filter4_d_1219_9892)">
<rect x="38.3701" y="46.4734" width="35.9893" height="3.74889" rx="1.87444" transform="rotate(-9.08285 38.3701 46.4734)" fill="#F19CA3"/>
<rect x="15.9469" y="50.6543" width="18.2426" height="3.74889" rx="1.87444" transform="rotate(-9.08285 15.9469 50.6543)" fill="#F19CA3"/>
<rect x="16.7394" y="57.1648" width="59.4843" height="3.74889" rx="1.87444" transform="rotate(-9.08285 16.7394 57.1648)" fill="#F19CA3"/>
<rect x="18.1963" y="64.6626" width="59.4843" height="3.74889" rx="1.87444" transform="rotate(-9.08285 18.1963 64.6626)" fill="#F19CA3"/>
<rect x="19.6958" y="72.1604" width="41.103" height="3.74889" rx="1.87444" transform="rotate(-9.08285 19.6958 72.1604)" fill="#F19CA3"/>
</g>
<path d="M100.271 84.7394L73.286 73.9453H63.2629L54.3964 78.1858L52.8544 84.7394L65.9614 87.4379L100.271 84.7394Z" fill="#780001"/>
<path d="M44.3733 77.0294L25.8693 80.8844L17.3882 77.4149L10.0637 71.2468L5.82318 81.6554L6.97969 92.0639L52.4689 88.5944L55.9384 78.5714L52.4689 77.0294H44.3733Z" fill="#B91B70"/>
</g>
<path d="M172.549 92.3638C189.897 81.5697 196.45 71.5466 196.45 60.7525C196.45 49.9585 245.409 72.7031 229.989 74.6306C214.569 76.5582 198.763 85.0392 172.549 92.3638Z" fill="#BB9FE9"/>
<rect width="69.8548" height="40.925" rx="12.3361" transform="matrix(-0.992883 -0.119091 -0.119091 0.992883 250.25 40.1591)" fill="#BB9FE9"/>
<mask id="mask6_1219_9892" style="mask-type:alpha" maskUnits="userSpaceOnUse" x="172" y="33" width="77" height="60">
<path d="M172.549 92.3638C189.897 81.5697 196.45 71.5466 196.45 60.7525C196.45 49.9585 245.409 72.7031 229.989 74.6306C214.569 76.5582 198.763 85.0392 172.549 92.3638Z" fill="#BB9FE9"/>
<rect width="69.8548" height="40.925" rx="12.3361" transform="matrix(-0.992883 -0.119091 -0.119091 0.992883 250.25 40.1591)" fill="#BB9FE9"/>
</mask>
<g mask="url(#mask6_1219_9892)">
<path d="M224.529 45.8297C181.356 50.612 164.434 62.8236 161.37 68.3317C161.37 68.3317 147.106 64.6077 161.37 73.4742C175.633 82.3408 221.692 70.4983 221.692 70.4983C263.443 47.2758 248.726 45.8297 235.91 39.8518C214.884 32.6887 210.106 34.8832 210.345 36.8759C213.797 41.2353 230.407 41.0525 224.529 45.8297Z" fill="#8774E5"/>
<path d="M180.645 85.4247C180.645 85.4247 173.834 91.8498 171.393 93.5203L180.645 101.23L193.366 96.2188L203.004 89.6653L224.206 85.8102L243.481 82.7262L235 73.8597C233.587 74.1167 229.681 73.1657 228.447 73.4741C226.905 73.8596 218.809 73.8597 218.809 73.8597L209.943 70.7756C209.943 70.7756 205.371 71.7854 203.004 73.4741C201.009 74.8976 198.763 78.1002 198.763 78.1002L189.126 85.4247L180.645 85.4247Z" fill="#D3CAF7"/>
<g filter="url(#filter5_d_1219_9892)">
<path d="M226.479 61.6542C225.392 60.5371 222.302 58.4444 220.276 58.4444C219.807 58.4444 219.398 58.5487 219.063 58.7646C218.072 59.3977 217.283 59.8892 216.903 59.8892C216.695 59.8892 216.471 59.703 215.98 59.2785L215.898 59.204C214.535 58.0199 214.245 57.7146 213.716 57.1635L213.582 57.022C213.486 56.9252 213.404 56.8358 213.322 56.7539C212.86 56.2773 212.525 55.9347 211.341 54.5942L211.289 54.5346C210.723 53.8942 210.351 53.4771 210.328 53.1718C210.306 52.8739 210.567 52.3899 211.229 51.4887C212.034 50.4015 212.063 49.061 211.326 47.5045C210.738 46.2757 209.777 45.0991 208.928 44.0639L208.854 43.9745C208.124 43.0809 207.275 42.634 206.33 42.634C205.28 42.634 204.409 43.2 203.947 43.4979C203.91 43.5202 203.872 43.55 203.835 43.5724C202.8 44.2277 202.048 45.1288 201.765 46.0448C201.341 47.4226 201.058 49.2099 203.091 52.9261C204.848 56.1432 206.441 58.3029 208.973 60.902C211.356 63.3447 212.413 64.1341 214.781 65.8469C217.417 67.7534 219.949 68.8481 221.721 68.8481C223.367 68.8481 224.662 68.8481 226.509 66.6214C228.445 64.283 227.641 62.8532 226.479 61.6542Z" fill="#96D2FA"/>
</g>
<path d="M250.421 57.2832C248.365 56.2551 245.024 53.0426 245.024 53.0426L237.314 49.9586L231.531 44.9471L226.134 44.9471L219.966 43.4051L223.05 39.9356L226.905 38.7791L230.76 39.1646L233.844 36.0806L243.482 41.4776C243.482 41.4776 254.661 39.907 254.661 40.3211L254.661 57.2832L250.421 57.2832Z" fill="#D3CAF7"/>
<path d="M186.042 33.7675L203.775 25.2865L225.363 33.7675L213.798 34.924L203.775 35.695L197.607 41.092L192.595 42.634L189.126 46.1035L189.897 52.2716L193.752 53.8136L196.836 59.2106L200.305 64.9931C197.992 64.6076 193.212 63.6053 192.595 62.6801C191.979 61.7549 191.053 59.2106 190.668 58.0541C188.483 57.0261 184.191 54.893 184.5 54.5846C184.808 54.2762 183.086 49.316 182.187 46.8745C183.343 44.69 184.962 39.0103 185.271 38.3935C185.579 37.7767 186.17 35.438 186.042 33.7675Z" fill="#D3CAF7"/>
<path d="M253.872 66.0699C249.13 70.1838 245.444 71.9401 241.536 72.2738C237.072 73.1042 238.94 71.1568 240.433 70.0793C242.617 59.0157 248.662 58.5949 251.411 59.7674C258.637 61.0155 256.063 64.4891 253.872 66.0699Z" fill="#9B78E3"/>
<path d="M226.427 86.7817C231.908 83.7185 234.811 80.8487 236.452 77.2865C238.75 73.3691 236.284 74.4653 234.763 75.5031C223.615 73.7999 221.167 79.3419 221.336 82.3258C220.055 89.5467 224.197 88.3051 226.427 86.7817Z" fill="#9B78E3"/>
<path d="M236.777 73.2013C236.995 72.5252 237.777 72.1161 238.569 72.3714C239.361 72.6266 239.757 73.4157 239.539 74.0918C239.321 74.768 238.539 75.1771 237.747 74.9218C236.955 74.6666 236.559 73.8775 236.777 73.2013Z" stroke="#D3CAF7" stroke-width="1.11654"/>
</g>
<defs>
<filter id="filter0_d_1219_9892" x="155.78" y="105.303" width="8.70571" height="8.65004" filterUnits="userSpaceOnUse" color-interpolation-filters="sRGB">
<feFlood flood-opacity="0" result="BackgroundImageFix"/>
<feColorMatrix in="SourceAlpha" type="matrix" values="0 0 0 0 0 0 0 0 0 0 0 0 0 0 0 0 0 0 127 0" result="hardAlpha"/>
<feOffset/>
<feGaussianBlur stdDeviation="0.661198"/>
<feComposite in2="hardAlpha" operator="out"/>
<feColorMatrix type="matrix" values="0 0 0 0 0.85098 0 0 0 0 0.862745 0 0 0 0 0.898039 0 0 0 1 0"/>
<feBlend mode="normal" in2="BackgroundImageFix" result="effect1_dropShadow_1219_9892"/>
<feBlend mode="normal" in="SourceGraphic" in2="effect1_dropShadow_1219_9892" result="shape"/>
</filter>
<filter id="filter1_d_1219_9892" x="136.143" y="106.578" width="10.1394" height="9.91799" filterUnits="userSpaceOnUse" color-interpolation-filters="sRGB">
<feFlood flood-opacity="0" result="BackgroundImageFix"/>
<feColorMatrix in="SourceAlpha" type="matrix" values="0 0 0 0 0 0 0 0 0 0 0 0 0 0 0 0 0 0 127 0" result="hardAlpha"/>
<feOffset/>
<feGaussianBlur stdDeviation="0.661198"/>
<feComposite in2="hardAlpha" operator="out"/>
<feColorMatrix type="matrix" values="0 0 0 0 0.85098 0 0 0 0 0.862745 0 0 0 0 0.898039 0 0 0 1 0"/>
<feBlend mode="normal" in2="BackgroundImageFix" result="effect1_dropShadow_1219_9892"/>
<feBlend mode="normal" in="SourceGraphic" in2="effect1_dropShadow_1219_9892" result="shape"/>
</filter>
<filter id="filter2_d_1219_9892" x="-4.6741" y="112.021" width="28.5264" height="26.7363" filterUnits="userSpaceOnUse" color-interpolation-filters="sRGB">
<feFlood flood-opacity="0" result="BackgroundImageFix"/>
<feColorMatrix in="SourceAlpha" type="matrix" values="0 0 0 0 0 0 0 0 0 0 0 0 0 0 0 0 0 0 127 0" result="hardAlpha"/>
<feOffset/>
<feGaussianBlur stdDeviation="0.622571"/>
<feComposite in2="hardAlpha" operator="out"/>
<feColorMatrix type="matrix" values="0 0 0 0 0.560784 0 0 0 0 0.658824 0 0 0 0 1 0 0 0 1 0"/>
<feBlend mode="normal" in2="BackgroundImageFix" result="effect1_dropShadow_1219_9892"/>
<feBlend mode="normal" in="SourceGraphic" in2="effect1_dropShadow_1219_9892" result="shape"/>
</filter>
<filter id="filter3_d_1219_9892" x="16.5222" y="121.748" width="33.2162" height="33.1529" filterUnits="userSpaceOnUse" color-interpolation-filters="sRGB">
<feFlood flood-opacity="0" result="BackgroundImageFix"/>
<feColorMatrix in="SourceAlpha" type="matrix" values="0 0 0 0 0 0 0 0 0 0 0 0 0 0 0 0 0 0 127 0" result="hardAlpha"/>
<feOffset/>
<feGaussianBlur stdDeviation="1.1565"/>
<feComposite in2="hardAlpha" operator="out"/>
<feColorMatrix type="matrix" values="0 0 0 0 0.560784 0 0 0 0 0.658824 0 0 0 0 1 0 0 0 1 0"/>
<feBlend mode="normal" in2="BackgroundImageFix" result="effect1_dropShadow_1219_9892"/>
<feBlend mode="normal" in="SourceGraphic" in2="effect1_dropShadow_1219_9892" result="shape"/>
</filter>
<filter id="filter4_d_1219_9892" x="13.906" y="38.7511" width="65.6614" height="39.1521" filterUnits="userSpaceOnUse" color-interpolation-filters="sRGB">
<feFlood flood-opacity="0" result="BackgroundImageFix"/>
<feColorMatrix in="SourceAlpha" type="matrix" values="0 0 0 0 0 0 0 0 0 0 0 0 0 0 0 0 0 0 127 0" result="hardAlpha"/>
<feOffset/>
<feGaussianBlur stdDeviation="1.1565"/>
<feComposite in2="hardAlpha" operator="out"/>
<feColorMatrix type="matrix" values="0 0 0 0 0.945098 0 0 0 0 0.611765 0 0 0 0 0.639216 0 0 0 1 0"/>
<feBlend mode="normal" in2="BackgroundImageFix" result="effect1_dropShadow_1219_9892"/>
<feBlend mode="normal" in="SourceGraphic" in2="effect1_dropShadow_1219_9892" result="shape"/>
</filter>
<filter id="filter5_d_1219_9892" x="198.378" y="39.55" width="32.3821" height="32.3821" filterUnits="userSpaceOnUse" color-interpolation-filters="sRGB">
<feFlood flood-opacity="0" result="BackgroundImageFix"/>
<feColorMatrix in="SourceAlpha" type="matrix" values="0 0 0 0 0 0 0 0 0 0 0 0 0 0 0 0 0 0 127 0" result="hardAlpha"/>
<feOffset/>
<feGaussianBlur stdDeviation="1.54201"/>
<feComposite in2="hardAlpha" operator="out"/>
<feColorMatrix type="matrix" values="0 0 0 0 0.588235 0 0 0 0 0.823529 0 0 0 0 0.980392 0 0 0 1 0"/>
<feBlend mode="normal" in2="BackgroundImageFix" result="effect1_dropShadow_1219_9892"/>
<feBlend mode="normal" in="SourceGraphic" in2="effect1_dropShadow_1219_9892" result="shape"/>
</filter>
<linearGradient id="paint0_linear_1219_9892" x1="212.452" y1="180.729" x2="186.623" y2="145.649" gradientUnits="userSpaceOnUse">
<stop stop-color="#D9DCE5"/>
<stop offset="1" stop-color="#D9DCE5" stop-opacity="0"/>
</linearGradient>
</defs>
</svg>
