<svg width="1440" height="2176" viewBox="0 0 1440 2176" fill="none" xmlns="http://www.w3.org/2000/svg">
<g opacity="0.15">
<path d="M0.000366211 0.000251778L1440 0L1440 536.508C1236.09 513.58 788.663 501.279 630.235 635.5C471.808 769.721 316.68 625.431 258.92 536.508C246.376 460.516 177.031 391.138 0.000248232 721.562L0.000366211 0.000251778Z" fill="#6379E0"/>
<path d="M0.000275306 876.407C83.1397 731.848 267.697 504.604 340.81 752.096C413.922 999.588 603.897 834.861 689.745 721.562C710.499 834.1 666.943 1064.69 396.694 946.277C296.592 902.415 262.644 854.941 242.674 827.014C233.373 814.008 227.104 805.242 218.597 803.054C201.005 798.532 173.842 822.137 90.5126 894.549C65.7219 916.092 35.96 941.955 0.000292139 972.683L0.000275306 876.407Z" fill="#343FC0"/>
<path fill-rule="evenodd" clip-rule="evenodd" d="M1440 833.376C1247.68 817.62 828.37 841.178 689.745 1061.46C551.121 1281.74 513.132 1153.24 511.465 1061.46C445.453 1189.1 422.349 1397.93 858.025 1212.07C1293.7 1026.21 1427.54 1148.97 1440 1233.58L1440 998.436C1385.79 948.016 1275.39 960.259 1226.96 972.682C850.898 1084.13 841.313 1019.12 883.529 972.682C913.659 993.51 998.024 1012.13 1094.44 919.981C1190.86 827.834 1364.99 881.586 1440 919.981L1440 833.376Z" fill="#343FC0"/>
<path d="M1094.44 919.981C1190.86 827.834 1364.99 881.586 1440 919.981L1440 998.436C1385.79 948.016 1275.39 960.259 1226.96 972.682C850.898 1084.13 841.313 1019.12 883.529 972.682C913.659 993.51 998.024 1012.13 1094.44 919.981Z" fill="#8FA8FF"/>
<path d="M837.146 662.775C939.864 570.367 1281.85 591.673 1440 613.876L1440 721.561C1320.9 698.054 1037.76 665.143 858.025 721.562C678.293 777.98 713.625 687.695 753.757 635.5C738.754 683.095 734.428 755.182 837.146 662.775Z" fill="#8FA8FF"/>
<path d="M0.000304584 1043.86C87.8489 1000.28 278.999 932.607 340.81 1010.5C402.62 1088.39 436.16 1042.95 445.203 1010.5C475.125 1066.17 493.961 1164.15 329.933 1110.68C165.904 1057.22 41.6325 1118.11 0.000324058 1155.24L0.000304584 1043.86Z" fill="#8FA8FF"/>
<path d="M1440 2175.69L0.000502481 2175.69L0.000467693 1976.73C155.488 2013.76 273.043 2006.05 366.933 1970.72C520.706 1912.88 610.999 1780.97 700.488 1650.24C756.653 1568.18 812.502 1486.6 883.529 1424.07C1086.16 1245.69 1338.94 1349.74 1440 1424.07L1440 2175.69Z" fill="#6376E0"/>
<path d="M0.000467693 1976.73C87.8491 1933.16 278.999 1865.48 340.81 1943.37C350.16 1955.15 358.863 1964.11 366.933 1970.72C412.207 2007.81 437.528 1970.92 445.203 1943.37C475.125 1999.04 493.961 2097.02 329.933 2043.56C165.904 1990.1 41.6327 2050.98 0.000487167 2088.11L0.000467693 1976.73Z" fill="#D8F0F8"/>
<path d="M0.000385502 1506.65C83.1398 1362.1 401.217 1125.72 474.33 1373.21C547.442 1620.7 797.681 1369.81 883.529 1256.51C904.283 1369.05 665.822 1677.78 395.573 1559.36C360.13 1543.83 339.647 1508.16 323.196 1479.51C317.711 1469.96 312.673 1461.19 307.679 1454.2C301.378 1445.39 266.635 1449.52 242.232 1452.42C230.615 1453.81 221.341 1454.91 218.597 1454.2C217.018 1455 215.379 1455.79 213.648 1456.64C195.303 1465.57 166.658 1479.53 90.5127 1545.7C65.722 1567.24 35.9601 1593.1 0.00040599 1623.83L0.000385502 1506.65Z" fill="#A9C7D1"/>
<path fill-rule="evenodd" clip-rule="evenodd" d="M0.000385502 1506.65C83.1398 1362.1 401.217 1125.72 474.33 1373.21C547.442 1620.7 797.681 1369.81 883.529 1256.51C904.283 1369.05 665.822 1677.78 395.573 1559.36C360.13 1543.83 339.647 1508.16 323.196 1479.51C317.711 1469.96 312.673 1461.19 307.679 1454.2C301.378 1445.39 266.635 1449.52 242.232 1452.42C230.615 1453.81 221.341 1454.91 218.597 1454.2C217.018 1455 215.379 1455.79 213.648 1456.64C195.303 1465.57 166.658 1479.53 90.5127 1545.7C65.722 1567.24 35.9601 1593.1 0.00040599 1623.83L0.000385502 1506.65ZM0.000467693 1976.73C87.8491 1933.16 278.999 1865.48 340.81 1943.37C350.16 1955.15 358.863 1964.11 366.933 1970.72C273.043 2006.05 155.488 2013.76 0.000467693 1976.73Z" fill="#6379E0"/>
</g>
</svg>
