<svg width="1440" height="1832" viewBox="0 0 1440 1832" fill="none" xmlns="http://www.w3.org/2000/svg">
<g opacity="0.15">
<path d="M0 0.000251778L1440 0L1440 192.008C1236.09 169.08 788.662 156.78 630.235 291C471.807 425.221 316.68 280.931 258.92 192.008C246.376 116.016 177.031 46.6385 6.59276e-05 377.062L0 0.000251778Z" fill="#6379E0"/>
<path d="M9.30015e-05 531.907C83.1395 387.349 267.697 160.105 340.809 407.596C413.922 655.088 603.897 490.361 689.745 377.062C710.499 489.601 666.943 720.194 396.694 601.778C296.592 557.915 262.644 510.441 242.674 482.515C233.373 469.508 227.104 460.742 218.596 458.555C201.005 454.032 173.841 477.637 90.5124 550.05C65.7217 571.593 35.9598 597.456 0.000109835 628.183L9.30015e-05 531.907Z" fill="#343FC0"/>
<path fill-rule="evenodd" clip-rule="evenodd" d="M1440 488.876C1247.68 473.12 828.369 496.678 689.745 716.961C551.121 937.243 513.131 808.745 511.464 716.961C445.453 844.604 422.349 1053.43 858.024 867.568C1293.7 681.71 1427.54 804.471 1440 889.083L1440 653.936C1385.79 603.516 1275.39 615.759 1226.96 628.183C850.898 739.628 841.313 674.618 883.529 628.183C913.659 649.01 998.023 667.627 1094.44 575.481C1190.86 483.334 1364.99 537.087 1440 575.481L1440 488.876Z" fill="#343FC0"/>
<path d="M1094.44 575.481C1190.86 483.334 1364.99 537.087 1440 575.481L1440 653.936C1385.79 603.516 1275.39 615.759 1226.96 628.183C850.898 739.628 841.313 674.618 883.529 628.183C913.659 649.01 998.023 667.627 1094.44 575.481Z" fill="#8FA8FF"/>
<path d="M837.146 318.275C939.863 225.868 1281.85 247.173 1440 269.376L1440 377.062C1320.9 353.554 1037.76 320.644 858.024 377.062C678.293 433.48 713.624 343.195 753.756 291C738.753 338.595 734.428 410.682 837.146 318.275Z" fill="#8FA8FF"/>
<path d="M0.000122279 699.357C87.8487 655.783 278.999 588.108 340.809 665.998C402.62 743.887 436.159 698.452 445.202 665.998C475.124 721.669 493.961 819.647 329.933 766.185C165.904 712.723 41.6324 773.611 0.000141754 810.737L0.000122279 699.357Z" fill="#8FA8FF"/>
<path d="M1440 1831.19L0.000320176 1831.19L0.000285388 1632.23C155.487 1669.26 273.043 1661.55 366.932 1626.23C520.706 1568.38 610.998 1436.47 700.487 1305.74C756.653 1223.68 812.501 1142.1 883.529 1079.57C1086.16 901.188 1338.94 1005.24 1440 1079.57L1440 1831.19Z" fill="#6376E0"/>
<path d="M0.000285388 1632.23C87.8489 1588.66 278.999 1520.98 340.81 1598.87C350.16 1610.65 358.863 1619.61 366.932 1626.23C412.207 1663.31 437.527 1626.42 445.203 1598.87C475.124 1654.54 493.961 1752.52 329.933 1699.06C165.904 1645.6 41.6325 1706.48 0.000304863 1743.61L0.000285388 1632.23Z" fill="#D8F0F8"/>
<path d="M0.000203197 1162.15C83.1396 1017.6 401.216 781.22 474.329 1028.71C547.442 1276.2 797.68 1025.31 883.529 912.011C904.282 1024.55 665.821 1333.28 395.573 1214.86C360.13 1199.33 339.647 1163.66 323.196 1135.01C317.71 1125.46 312.673 1116.69 307.679 1109.7C301.378 1100.89 266.634 1105.02 242.232 1107.92C230.614 1109.31 221.341 1110.41 218.597 1109.7C217.018 1110.5 215.379 1111.29 213.648 1112.14C195.303 1121.07 166.658 1135.03 90.5125 1201.2C65.7219 1222.74 35.96 1248.6 0.000223685 1279.33L0.000203197 1162.15Z" fill="#A9C7D1"/>
<path fill-rule="evenodd" clip-rule="evenodd" d="M0.000203197 1162.15C83.1396 1017.6 401.216 781.22 474.329 1028.71C547.442 1276.2 797.68 1025.31 883.529 912.011C904.282 1024.55 665.821 1333.28 395.573 1214.86C360.13 1199.33 339.647 1163.66 323.196 1135.01C317.71 1125.46 312.673 1116.69 307.679 1109.7C301.378 1100.89 266.634 1105.02 242.232 1107.92C230.614 1109.31 221.341 1110.41 218.597 1109.7C217.018 1110.5 215.379 1111.29 213.648 1112.14C195.303 1121.07 166.658 1135.03 90.5125 1201.2C65.7219 1222.74 35.96 1248.6 0.000223685 1279.33L0.000203197 1162.15ZM0.000285388 1632.23C87.8489 1588.66 278.999 1520.98 340.81 1598.87C350.16 1610.65 358.863 1619.61 366.932 1626.23C273.043 1661.55 155.487 1669.26 0.000285388 1632.23Z" fill="#6379E0"/>
</g>
</svg>
