<svg width="22" height="23" viewBox="0 0 22 23" fill="none" xmlns="http://www.w3.org/2000/svg">
<path d="M19.261 4.91847C19.0896 4.83818 18.9228 4.75017 18.7612 4.65476C18.2915 4.3734 17.8609 4.04189 17.4786 3.66739C16.5208 2.6749 16.1632 1.66811 16.0323 0.963865H16.0368C15.9274 0.378187 15.9725 0 15.9804 0H11.6203V15.2736C11.6203 15.4781 11.6203 15.6815 11.6113 15.8818C11.6113 15.9063 11.6079 15.9288 11.6068 15.9564C11.6068 15.9666 11.6068 15.9789 11.6034 15.9901V15.9993C11.5576 16.5472 11.3639 17.0765 11.0393 17.5406C10.7148 18.0048 10.2693 18.3895 9.74203 18.661C9.192 18.9445 8.56987 19.0932 7.93706 19.0923C5.90648 19.0923 4.25945 17.5918 4.25945 15.7387C4.25945 13.8846 5.90648 12.3841 7.93706 12.3841C8.32175 12.3841 8.70417 12.4393 9.06968 12.5476L9.07532 8.52453C7.96528 8.39478 6.83761 8.47493 5.76348 8.75993C4.68935 9.04493 3.69209 9.52859 2.83465 10.1804C2.08317 10.7717 1.45136 11.4774 0.967641 12.2655C0.78376 12.5527 0.0888487 13.7088 0.00536902 15.5833C-0.0476518 16.6464 0.305444 17.7502 0.473532 18.2051V18.2153C0.578445 18.4831 0.989075 19.3989 1.65691 20.1706C2.19546 20.7901 2.83177 21.3342 3.54536 21.7856V21.7754L3.55551 21.7856C5.66506 23.0837 8.00588 22.9989 8.00588 22.9989C8.41087 22.9835 9.76797 22.9989 11.309 22.3376C13.018 21.6037 13.9905 20.511 13.9905 20.511C14.6122 19.858 15.1066 19.1138 15.4525 18.3104C15.8473 17.37 15.9782 16.2436 15.9782 15.7939V7.68946C16.0312 7.71808 16.7363 8.14021 16.7363 8.14021C16.7363 8.14021 17.7516 8.72998 19.3343 9.11328C20.4692 9.38619 22 9.44445 22 9.44445V5.52255C21.4642 5.5757 20.3755 5.42238 19.2598 4.91949L19.261 4.91847Z" fill="#E0ECFF"/>
</svg>
