<svg width="32" height="32" viewBox="0 0 32 32" fill="none" xmlns="http://www.w3.org/2000/svg">
<path d="M31.3299 7.7089C31.1488 6.99314 30.7959 6.34513 30.3087 5.83375C29.8079 5.30664 29.194 4.92959 28.525 4.73819C26.0213 4.00732 15.9907 4.00732 15.9907 4.00732C11.809 3.95463 7.62837 4.18638 3.47236 4.70127C2.80337 4.90682 2.19061 5.2923 1.6886 5.82341C1.19533 6.34905 0.838044 6.99723 0.651402 7.70742C0.203053 10.3825 -0.0147857 13.0986 0.0008228 15.8193C-0.015175 18.5375 0.202129 21.2528 0.651402 23.9312C0.834044 24.6384 1.19 25.2836 1.6846 25.8048C2.1792 26.326 2.79511 26.7026 3.47236 26.9019C6.00935 27.6313 15.9907 27.6313 15.9907 27.6313C20.1777 27.684 24.3636 27.4523 28.525 26.9373C29.194 26.7459 29.8079 26.3689 30.3087 25.8418C30.7957 25.3305 31.1482 24.6824 31.3286 23.9666C31.7887 21.2926 32.0124 18.5753 31.9965 15.8533C32.0311 13.1197 31.8077 10.3896 31.3299 7.70742V7.7089ZM12.8018 20.8748V10.7652L21.1473 15.8208L12.8018 20.8748Z" fill="#E0ECFF"/>
</svg>
