<svg width="168" height="65" viewBox="0 0 168 65" fill="none" xmlns="http://www.w3.org/2000/svg">
<g filter="url(#filter0_d_248_114)">
<path d="M30.7497 33.2699L26.0448 31.5067L23.6594 34.0496L20.5667 31.1379L31.693 20.8417L35.3885 22.2528L34.3984 37.1846L30.3262 36.7114L30.7497 33.2699ZM31.2549 29.1475L31.7206 25.4415L29.0361 28.3046L31.2549 29.1475Z" fill="#2E3881"/>
<path d="M41.1521 39.9354C40.2137 39.706 39.408 39.2464 38.7349 38.5567C38.0655 37.854 37.6081 37.0304 37.3629 36.0859C37.1212 35.1285 37.1336 34.171 37.4001 33.2134C37.6665 32.2557 38.1344 31.4372 38.804 30.7579C39.49 30.0687 40.2834 29.5854 41.1843 29.3081C42.0981 29.034 43.0242 29.0116 43.9626 29.241C44.7982 29.4453 45.5605 29.839 46.2495 30.422C46.9514 31.0082 47.4612 31.6926 47.7789 32.4752C48.0967 33.2577 48.1493 34.0307 47.9369 34.7942L44.6164 34.2934C44.6051 33.8899 44.4758 33.5404 44.2285 33.245C43.9977 32.9397 43.6958 32.7416 43.323 32.6504C42.8088 32.5247 42.292 32.6057 41.7727 32.8934C41.2698 33.1712 40.9499 33.556 40.8131 34.0478C40.7231 34.3713 40.7313 34.7119 40.8377 35.0696C40.9441 35.4273 41.1246 35.741 41.3791 36.0105C41.6465 36.2832 41.9473 36.4604 42.2815 36.5421C42.6158 36.6238 42.9577 36.6037 43.3074 36.4819C43.6699 36.3632 43.9569 36.1708 44.1682 35.9046L47.2827 36.9977C47.0847 37.7094 46.6515 38.3291 45.983 38.8567C45.3309 39.3745 44.5652 39.7333 43.6859 39.9329C42.8066 40.1326 41.962 40.1334 41.1521 39.9354Z" fill="#2E3881"/>
<path d="M55.1846 42.513L56.2468 36.9877C56.3531 36.4351 56.2727 35.9752 56.0057 35.6078C55.7387 35.2404 55.3233 35.0123 54.7597 34.9234C53.829 34.7767 53.0932 35.1622 52.5521 36.08L51.5116 41.9137L47.8265 41.2719L50.5938 25.4022L54.3296 25.9911L53.157 32.6173C53.6362 32.232 54.217 31.9508 54.8993 31.7737C55.5816 31.5966 56.2439 31.5587 56.8862 31.6599C58.0921 31.85 58.9642 32.4416 59.5026 33.4346C60.0541 34.4296 60.1923 35.6781 59.917 37.1799L58.8221 43.0864L55.1846 42.513Z" fill="#2E3881"/>
<path d="M63.8339 32.0312C63.4504 31.9918 63.0872 31.8538 62.7442 31.617C62.4163 31.3684 62.158 31.053 61.9691 30.6709C61.7935 30.2901 61.734 29.8944 61.7905 29.4838C61.878 28.8479 62.1889 28.3424 62.7233 27.9674C63.271 27.5937 63.882 27.4415 64.5565 27.5107C65.1913 27.5759 65.674 27.8203 66.0046 28.2438C66.3485 28.6687 66.4767 29.1991 66.3892 29.835C66.2926 30.5371 66.0008 31.0983 65.5139 31.5185C65.0287 31.9255 64.4687 32.0964 63.8339 32.0312ZM61.5678 32.5643L65.7138 32.99L64.2647 43.5217L60.4362 43.1287L61.5678 32.5643Z" fill="#2E3881"/>
<path d="M71.7306 33.3373C73.3917 33.4384 74.6342 34.0019 75.4582 35.028C76.2821 36.0541 76.6139 37.4046 76.4534 39.0794C76.4267 39.3586 76.3997 39.5708 76.3724 39.7162L69.3083 39.3669C69.4258 39.8153 69.61 40.1941 69.8611 40.5035C70.1267 40.8004 70.4509 40.9739 70.8337 41.0239C71.8892 41.1683 72.6899 40.9028 73.2358 40.2274L76.0079 41.2182C75.7753 41.8325 75.389 42.3772 74.8489 42.8524C74.3101 43.3143 73.6818 43.6639 72.964 43.901C72.2596 44.1389 71.5419 44.2356 70.811 44.1912C70.6382 44.1807 70.506 44.166 70.4142 44.147C69.5037 44.0248 68.6818 43.674 67.9487 43.0946C67.2289 42.5161 66.6779 41.7806 66.2955 40.8884C65.9265 39.9969 65.791 39.0394 65.889 38.0159C65.9081 37.8165 65.9294 37.664 65.9529 37.5585C66.0901 36.6844 66.431 35.9163 66.9756 35.2542C67.5336 34.5929 68.223 34.0934 69.044 33.7556C69.8782 33.4186 70.7738 33.2792 71.7306 33.3373ZM71.693 35.8218C70.7173 35.6823 70.0067 36.0536 69.5613 36.9356L72.9281 37.1604C72.9119 36.7717 72.7811 36.4629 72.5357 36.2341C72.3036 36.006 72.0227 35.8686 71.693 35.8218Z" fill="#2E3881"/>
<path d="M87.0908 34.0763L83.4877 44.6216L78.633 44.4601L77.083 33.7234L80.9189 33.851L81.5821 39.976L83.235 33.9481L87.0908 34.0763Z" fill="#2E3881"/>
<path d="M93.5126 34.0485C95.18 34.0551 96.4551 34.5463 97.3378 35.522C98.2204 36.4978 98.6292 37.8246 98.564 39.5025C98.5531 39.7822 98.5382 39.9952 98.5192 40.1416L91.4327 40.1937C91.5757 40.6337 91.7815 41.0008 92.0503 41.2949C92.3329 41.5757 92.6671 41.7302 93.0529 41.7583C94.117 41.8424 94.9029 41.5325 95.4105 40.8286L98.2401 41.6589C98.0423 42.2841 97.6869 42.8487 97.1736 43.3528C96.6609 43.8436 96.0523 44.2275 95.3478 44.5044C94.6566 44.7814 93.9441 44.9184 93.2105 44.9155C93.037 44.9148 92.9039 44.9077 92.811 44.894C91.8932 44.8238 91.0511 44.5208 90.2847 43.985C89.5317 43.4493 88.9386 42.7477 88.5053 41.8803C88.0854 41.0129 87.8954 40.0665 87.9352 39.0411C87.943 38.8414 87.9556 38.6883 87.9731 38.5818C88.0606 37.7031 88.3579 36.9184 88.865 36.2278C89.3855 35.5373 90.0468 35.0005 90.8488 34.6174C91.6642 34.2344 92.5521 34.0447 93.5126 34.0485ZM93.6164 36.5262C92.6324 36.4425 91.9427 36.8526 91.5474 37.7568L94.9282 37.79C94.8898 37.4036 94.7414 37.1034 94.4829 36.8893C94.2377 36.6752 93.9489 36.5542 93.6164 36.5262Z" fill="#2E3881"/>
<path d="M115.224 44.2966L111.339 44.4284L111.324 38.8792C111.324 38.1472 111.238 37.6444 111.065 37.3708C110.905 37.0967 110.605 36.9671 110.164 36.9821C109.83 36.9934 109.556 37.209 109.342 37.6288C109.142 38.0349 109.041 38.5507 109.041 39.1762L109.061 39.5549L109.041 39.4957L109.037 44.4467L105.272 44.6144L105.236 39.0858C105.237 38.4736 105.124 38.0049 104.897 37.6799C104.67 37.3416 104.35 37.1794 103.936 37.1935C103.509 37.208 103.182 37.3987 102.955 37.7658C102.727 38.1328 102.614 38.6491 102.613 39.3146L102.633 39.7331L102.613 39.6939L102.769 44.7393L99.0039 44.8671L99.0129 34.3461L102.457 34.1094L102.476 34.9073C102.824 34.6294 103.244 34.4088 103.738 34.2456C104.246 34.082 104.793 33.9902 105.381 33.9703C106.609 33.9286 107.536 34.2099 108.163 34.8141C108.497 34.4301 108.938 34.149 109.486 33.9707C110.033 33.7924 110.747 33.6883 111.628 33.6584C112.87 33.6163 113.771 34.0781 114.331 35.044C114.904 35.9961 115.196 37.5632 115.208 39.7455L115.224 44.2966Z" fill="#2E3881"/>
<path d="M120.773 33.1254C122.44 33.0014 123.753 33.39 124.712 34.291C125.672 35.192 126.184 36.4792 126.251 38.1525C126.262 38.4313 126.264 38.6443 126.257 38.7914L119.177 39.3975C119.354 39.8239 119.589 40.1727 119.881 40.444C120.185 40.7011 120.532 40.8286 120.919 40.8264C121.99 40.8267 122.751 40.4571 123.203 39.7176L126.097 40.3217C125.948 40.9587 125.638 41.5479 125.164 42.0892C124.69 42.6173 124.112 43.0465 123.429 43.3769C122.76 43.7064 122.059 43.8984 121.325 43.9529C121.152 43.9658 121.018 43.9691 120.924 43.9627C120.001 43.9647 119.136 43.7294 118.327 43.2567C117.532 42.783 116.884 42.1319 116.383 41.3034C115.895 40.4739 115.631 39.5479 115.59 38.5253C115.582 38.3261 115.583 38.1729 115.592 38.0657C115.61 37.1852 115.846 36.3819 116.298 35.6556C116.764 34.9284 117.383 34.343 118.155 33.8994C118.94 33.4547 119.812 33.1968 120.773 33.1254ZM121.071 35.5806C120.081 35.5743 119.424 36.036 119.1 36.9658L122.482 36.7344C122.413 36.3532 122.241 36.0663 121.966 35.8737C121.704 35.68 121.406 35.5823 121.071 35.5806Z" fill="#2E3881"/>
<path d="M134.277 31.7525C135.262 31.6443 136.066 31.8897 136.688 32.4886C137.31 33.0743 137.653 33.9643 137.716 35.1585L138.127 42.1803L134.473 42.5817L134.14 37.9137C134.067 36.9474 133.881 36.2738 133.584 35.8927C133.3 35.5101 132.905 35.3466 132.399 35.4022C131.986 35.4475 131.636 35.6061 131.348 35.878C131.073 36.1484 130.924 36.5719 130.901 37.1484L131.358 42.9239L127.744 43.3208L126.942 32.7383L130.512 32.2862L130.589 33.2988C131.069 32.9123 131.641 32.5759 132.304 32.2895C132.967 32.0032 133.625 31.8242 134.277 31.7525Z" fill="#2E3881"/>
<path d="M147.922 39.0802C147.557 39.7895 147.073 40.3485 146.471 40.7574C145.882 41.1511 145.136 41.4135 144.233 41.5447C143.026 41.7202 142.09 41.5483 141.425 41.0289C140.759 40.4964 140.35 39.5516 140.198 38.1944C140.156 37.8123 140.133 37.3068 140.13 36.6778L140.154 34.3644L138.582 34.5929L138.094 31.4904L140.199 31.1442L140.219 28.7912L143.742 28.0983L143.737 30.5897L145.962 30.2261L146.7 33.3928L143.715 33.8267V35.6345C143.715 35.8755 143.72 36.0488 143.732 36.1542C143.791 36.6812 143.937 37.0818 144.17 37.356C144.403 37.6301 144.685 37.743 145.017 37.6948C145.348 37.6466 145.632 37.5317 145.868 37.3501C146.104 37.1685 146.354 36.8711 146.618 36.4578L147.922 39.0802Z" fill="#2E3881"/>
</g>
</svg>
