<svg width="99" height="94" viewBox="0 0 99 94" fill="none" xmlns="http://www.w3.org/2000/svg">
<g filter="url(#filter0_d_248_105)">
<path d="M29.0401 66.7099L24.4694 69.1618L24.7177 72.5638L20.4048 73.0746L20.415 58.19L24.0246 56.2806L34.4865 66.4084L31.3164 69.192L29.0401 66.7099ZM26.3122 63.7384L23.8678 61.0582L24.1482 64.8876L26.3122 63.7384Z" fill="#2E3881"/>
<path d="M41.9019 62.1361C41.2614 63.0536 40.5616 63.7544 39.8024 64.2383C38.7556 64.9055 37.7114 65.1159 36.6697 64.8693C35.6281 64.6227 34.7526 63.8998 34.0432 62.7005L29.106 54.4578L31.8012 51.4434L36.7903 59.6531C37.0665 60.1098 37.3985 60.3689 37.7863 60.4304C38.1674 60.4807 38.5247 60.3995 38.8583 60.1869C39.0999 60.0329 39.2651 59.8581 39.354 59.6626L41.9019 62.1361Z" fill="#2E3881"/>
<path d="M46.7437 46.4759L52.694 54.9015L49.5528 57.201L49.0016 56.4206C48.9436 56.9302 48.7633 57.4326 48.461 57.9278C48.1511 58.4123 47.7482 58.8362 47.2522 59.1992C46.117 60.0303 45.0078 60.2946 43.9248 59.9921C42.8343 59.679 41.8051 58.8136 40.8373 57.3958L37.7937 52.9795L40.8522 50.7405L43.8164 54.9734C44.1313 55.4193 44.4853 55.6837 44.8782 55.7666C45.2746 55.8307 45.6822 55.7095 46.1011 55.4029C46.5529 55.0721 46.7857 54.644 46.7992 54.1187C46.8163 53.5746 46.6373 53.0372 46.2624 52.5062L46.2736 52.5222L43.6356 48.7512L46.7437 46.4759Z" fill="#2E3881"/>
<path d="M66.6059 42.9002L63.6427 45.5564L60.0399 41.5158C59.5667 40.981 59.1736 40.6709 58.8606 40.5854C58.5577 40.4907 58.2383 40.594 57.9022 40.8952C57.6476 41.1234 57.5722 41.4613 57.676 41.9087C57.7814 42.3373 58.0362 42.7801 58.4405 43.2371L58.701 43.5005L58.647 43.4704L61.8474 47.0872L59.0016 49.6904L55.3964 45.678C55.0007 45.2308 54.6087 44.9632 54.2205 44.8753C53.8237 44.7777 53.4675 44.8704 53.1518 45.1534C52.826 45.4454 52.6926 45.8003 52.7518 46.218C52.8109 46.6357 53.0556 47.0876 53.4858 47.5737L53.772 47.8663L53.731 47.8508L57.118 51.4311L54.2464 54.0051L47.4456 46.3193L49.9955 43.8769L50.5269 44.4465C50.6196 44.0147 50.807 43.5765 51.0892 43.1318C51.3815 42.678 51.7517 42.2503 52.1997 41.8487C53.1366 41.0089 54.0465 40.603 54.9294 40.631C54.9431 40.1306 55.1071 39.6349 55.4214 39.144C55.7356 38.6531 56.2288 38.1064 56.9009 37.504C57.8479 36.6551 58.8536 36.3987 59.9179 36.7348C60.9838 37.0521 62.2273 38.0034 63.6484 39.5888L66.6059 42.9002Z" fill="#2E3881"/>
<path d="M64.9855 28.9296C65.6661 28.1806 66.4454 27.8056 67.3234 27.8045C68.1917 27.7947 69.0509 28.1907 69.901 28.9925L74.9277 33.6813L72.403 36.4597L69.0153 33.3837C68.3109 32.7498 67.7171 32.3995 67.234 32.3328C66.7601 32.2559 66.3484 32.4098 65.9989 32.7944C65.7138 33.1082 65.5523 33.4596 65.5145 33.8487C65.4858 34.2277 65.656 34.6292 66.0249 35.0532L70.2508 38.8282L67.7537 41.5762L60.0388 34.634L62.4649 31.8773L63.2031 32.5415C63.3113 31.9398 63.5228 31.3114 63.8375 30.6563C64.1522 30.0011 64.5348 29.4256 64.9855 28.9296Z" fill="#2E3881"/>
<path d="M68.5072 23.8468C68.2584 24.1554 67.9373 24.3984 67.544 24.5758C67.1491 24.7345 66.7367 24.8011 66.3068 24.7756C65.8855 24.7395 65.5167 24.5969 65.2004 24.3477C64.7107 23.9618 64.4571 23.4488 64.4395 22.8085C64.4305 22.1575 64.6448 21.5607 65.0824 21.018C65.4943 20.5072 65.9726 20.2141 66.5173 20.1386C67.0706 20.0525 67.5921 20.2023 68.0818 20.5881C68.6225 21.0141 68.9341 21.5381 69.0166 22.1599C69.0889 22.7737 68.9191 23.336 68.5072 23.8468ZM67.6858 26.0448L70.3758 22.7088L78.4865 29.099L76.0024 32.1797L67.6858 26.0448Z" fill="#2E3881"/>
</g>
</svg>
