<svg width="66" height="117" viewBox="0 0 66 117" fill="none" xmlns="http://www.w3.org/2000/svg">
<g filter="url(#filter0_d_248_92)">
<path d="M34.3409 91.676L36.003 91.8663L36.6111 87.4042L40.4144 87.6643L39.7782 92.3143L44.7805 92.907L44.2198 96.6654L30.0882 94.557L31.3266 85.0981L35.085 85.6589L34.3409 91.676Z" fill="#2E3881"/>
<path d="M44.5571 78.6903L43.6663 78.6241C43.9237 78.9923 44.1165 79.437 44.2448 79.9583C44.373 80.4795 44.4118 81.0049 44.3611 81.5345C44.2814 82.3667 43.9808 83.1141 43.4593 83.7768C42.9251 84.4382 42.2473 84.9396 41.4257 85.2808C40.6041 85.6221 39.7267 85.748 38.7937 85.6587C37.848 85.5681 37.0048 85.2711 36.2641 84.7675C35.5234 84.264 34.968 83.6191 34.5979 82.8329C34.2164 82.0329 34.0691 81.179 34.156 80.2712C34.2031 79.7794 34.3291 79.327 34.5341 78.914C34.7403 78.4884 35.001 78.1571 35.3164 77.92L34.5031 77.8422L34.8037 74.7025L44.8884 75.2291L44.5571 78.6903ZM41.3019 80.5927C41.3333 80.2648 41.2626 79.94 41.0898 79.618C40.9171 79.2961 40.6752 79.0312 40.3643 78.8233C40.0407 78.6141 39.6898 78.4915 39.3116 78.4553C38.7946 78.4058 38.3496 78.5349 37.9766 78.8428C37.5921 79.1368 37.3758 79.536 37.3275 80.0404C37.2743 80.5952 37.4233 81.0993 37.7744 81.5528C38.1254 82.0064 38.572 82.2591 39.1142 82.311C39.442 82.3424 39.772 82.2849 40.1041 82.1386C40.4375 81.9796 40.7126 81.7642 40.9295 81.4923C41.1476 81.2078 41.2717 80.9079 41.3019 80.5927Z" fill="#2E3881"/>
<path d="M45.0414 67.5404C45.1076 68.4627 44.9293 69.339 44.5064 70.1695C44.0708 71.0008 43.4655 71.6792 42.6905 72.2048C41.9029 72.7312 41.0416 73.028 40.1067 73.0952C39.1718 73.1624 38.3031 73.0025 37.5006 72.6157C36.6846 72.2171 36.022 71.6551 35.5127 70.9298C35.0025 70.1918 34.7143 69.3616 34.6481 68.4393C34.5891 67.6181 34.721 66.8022 35.0437 65.9917C35.3656 65.1685 35.831 64.4874 36.4399 63.9484C37.0489 63.4094 37.726 63.1131 38.4715 63.0596L38.9844 66.2229C38.6262 66.363 38.3506 66.5923 38.1576 66.9109C37.9511 67.2179 37.8609 67.5545 37.8873 67.9209C37.9236 68.4263 38.1457 68.8675 38.5538 69.2446C38.9483 69.6099 39.3856 69.7753 39.8657 69.7408C40.1816 69.7181 40.4843 69.6012 40.7739 69.3899C41.0635 69.1786 41.2922 68.9145 41.4599 68.5977C41.6268 68.2682 41.6984 67.9392 41.6748 67.6108C41.6512 67.2823 41.5342 66.9795 41.3238 66.7026C41.1125 66.413 40.857 66.2154 40.5574 66.11L40.6346 62.9423C41.3295 62.8924 42.01 63.0848 42.6762 63.5195C43.3289 63.9425 43.8719 64.5194 44.3054 65.2502C44.7389 65.981 44.9842 66.7444 45.0414 67.5404Z" fill="#2E3881"/>
<path d="M34.2076 59.7119C34.2568 60.076 34.2109 60.4464 34.0701 60.8233C33.915 61.1894 33.6833 61.5083 33.3749 61.78C33.0648 62.0392 32.7151 62.195 32.326 62.2476C31.7235 62.3289 31.1909 62.1708 30.7281 61.7731C30.2637 61.3629 29.9883 60.8377 29.9019 60.1975C29.8205 59.595 29.9373 59.0871 30.2521 58.6739C30.5653 58.2482 31.0232 57.9946 31.6257 57.9133C32.291 57.8234 32.8704 57.9497 33.364 58.2921C33.8451 58.6361 34.1263 59.1094 34.2076 59.7119ZM35.2003 61.6677L34.6689 57.7324L44.6483 56.3848L45.139 60.0189L35.2003 61.6677Z" fill="#2E3881"/>
<path d="M42.5118 47.1541C43.0893 47.9499 43.4618 48.7349 43.6294 49.5089C43.8605 50.5762 43.7012 51.5131 43.1514 52.3197C42.6017 53.1264 41.6981 53.6597 40.4406 53.9197L31.7776 55.7587L30.0725 52.647L38.7241 50.7553C39.2049 50.6511 39.5347 50.4447 39.7134 50.1359C39.8804 49.8296 39.927 49.5064 39.8534 49.1663C39.8 48.92 39.7041 48.732 39.5655 48.6024L42.5118 47.1541Z" fill="#2E3881"/>
<path d="M32.0245 46.2093C32.1362 46.5389 32.1606 46.8917 32.0979 47.2677C32.02 47.6361 31.8622 47.9746 31.6247 48.2831C31.3832 48.5803 31.0863 48.7885 30.734 48.9079C30.1884 49.0926 29.6645 49.042 29.1622 48.756C28.6561 48.4587 28.3049 48.0202 28.1085 47.4405C27.9238 46.8949 27.9404 46.4015 28.1584 45.9603C28.3725 45.5077 28.7523 45.189 29.2979 45.0042C29.9003 44.8002 30.462 44.8127 30.9829 45.0417C31.4926 45.2745 31.8398 45.6637 32.0245 46.2093ZM33.3018 47.8482L32.095 44.285L41.1308 41.2247L42.2452 44.5151L33.3018 47.8482Z" fill="#2E3881"/>
<path d="M35.5762 32.7315C36.265 32.8989 36.8445 33.2027 37.3144 33.6429C37.769 34.0761 38.1379 34.6754 38.421 35.4407C38.7999 36.4648 38.8242 37.3259 38.4939 38.0239C38.1523 38.726 37.402 39.2916 36.2428 39.7205C35.9164 39.8412 35.4783 39.9713 34.9285 40.1107L32.8997 40.5927L33.3931 41.9263L30.7696 43.0314L30.0737 41.2544L28.0111 41.7489L26.7474 38.8002L28.9282 38.262L28.1949 36.3838L30.8279 35.0449L31.7648 37.5771L33.3466 37.1838C33.5575 37.1314 33.708 37.0885 33.798 37.0552C34.2482 36.8886 34.5715 36.673 34.7678 36.4085C34.9642 36.1439 35.0104 35.8709 34.9063 35.5895C34.8022 35.3082 34.6487 35.0835 34.4458 34.9155C34.2428 34.7474 33.9359 34.5923 33.525 34.45L35.5762 32.7315Z" fill="#2E3881"/>
<path d="M20.8224 27.6952L29.5412 24.7463C30.981 24.291 32.2525 24.1861 33.3557 24.4316C34.4621 24.6614 35.3138 25.2243 35.9107 26.1203C36.1621 26.4976 36.3757 26.9409 36.5515 27.4501C36.7211 27.95 36.8373 28.4514 36.9 28.9543L33.8302 30.0802C33.8617 29.8005 33.8147 29.4437 33.6891 29.0099C33.5635 28.5761 33.4221 28.2413 33.265 28.0055C32.9823 27.5811 32.5863 27.3751 32.0771 27.3875L26.4685 35.6794L24.5503 32.9535L27.7766 28.7205L22.8348 30.4399L20.8224 27.6952Z" fill="#2E3881"/>
</g>
</svg>
