<svg width="154" height="99" viewBox="0 0 154 99" fill="none" xmlns="http://www.w3.org/2000/svg">
<g filter="url(#filter0_d_248_78)">
<g filter="url(#filter1_d_248_78)">
<path d="M31.782 70.7587C31.926 71.1743 32.0209 71.6411 32.0669 72.159C32.1553 73.1551 32.0048 74.0988 31.6154 74.99C31.2261 75.8813 30.6487 76.6152 29.8833 77.1918C29.1168 77.7551 28.2289 78.0816 27.2195 78.1712C26.4625 78.2383 25.6858 78.16 24.8896 77.9362C24.0922 77.6991 23.3638 77.3354 22.7046 76.8452C22.0574 76.3404 21.5704 75.7545 21.2434 75.0875L24.3922 72.5591C24.5327 72.9349 24.7867 73.2336 25.1544 73.4553C25.521 73.6637 25.9034 73.7502 26.3019 73.7148C26.7534 73.6747 27.1045 73.483 27.3551 73.1395C27.6178 72.7815 27.7262 72.3435 27.6802 71.8256C27.6696 71.706 27.6248 71.5025 27.5457 71.2151L26.042 66.4895L21.607 66.7426L21.8355 63.2086L31.2393 62.8357L31.8335 66.1361L30.296 66.2324L31.782 70.7587Z" fill="#2E3881"/>
<path d="M40.8141 76.6682L40.6813 75.7374C40.3608 76.0851 39.947 76.3836 39.4399 76.633C38.9329 76.8824 38.4014 77.0407 37.8454 77.108C36.9718 77.2137 36.1355 77.0731 35.3366 76.6863C34.5361 76.2862 33.8678 75.7023 33.3317 74.9344C32.7955 74.1666 32.4682 73.2929 32.3497 72.3134C32.2296 71.3206 32.3449 70.3867 32.6956 69.5116C33.0464 68.6364 33.5842 67.92 34.3091 67.3622C35.0457 66.7896 35.8905 66.4456 36.8435 66.3303C37.3598 66.2678 37.8533 66.2954 38.3242 66.413C38.8083 66.529 39.2078 66.7224 39.5226 66.9932L39.4193 66.1395L42.7152 65.7407L44.4476 76.2285L40.8141 76.6682ZM38.1241 73.7502C38.4683 73.7085 38.7864 73.5626 39.0784 73.3124C39.3705 73.0621 39.5883 72.7537 39.732 72.3871C39.8741 72.0073 39.9211 71.6189 39.8731 71.2218C39.8074 70.6791 39.5742 70.2506 39.1736 69.9365C38.7846 69.6075 38.3254 69.475 37.7959 69.5391C37.2135 69.6096 36.7287 69.8764 36.3415 70.3396C35.9543 70.8028 35.7952 71.319 35.8641 71.8882C35.9057 72.2323 36.0392 72.5586 36.2646 72.8671C36.5032 73.174 36.7867 73.4083 37.1152 73.5701C37.4569 73.7302 37.7932 73.7902 38.1241 73.7502Z" fill="#2E3881"/>
<path d="M52.0593 74.5332C51.139 75.122 50.2441 75.4842 49.3746 75.6198C48.1758 75.8068 47.1469 75.5691 46.2879 74.9069C45.429 74.2447 44.8962 73.2077 44.6895 71.796L43.2129 62.0674L46.7752 60.3783L48.3111 70.0978C48.3953 70.6379 48.6029 71.0171 48.9338 71.2354C49.2627 71.4405 49.6181 71.5133 50.0002 71.4537C50.2768 71.4105 50.4916 71.3163 50.6443 71.1711L52.0593 74.5332Z" fill="#2E3881"/>
<path d="M62.8204 62.092L64.9148 72.4626L61.19 73.2148L60.996 72.2542C60.7458 72.6992 60.3883 73.0843 59.9234 73.4094C59.4559 73.7215 58.9281 73.9369 58.34 74.0557C56.9939 74.3275 55.8912 74.0877 55.0321 73.3362C54.1704 72.5717 53.5784 71.3242 53.2561 69.5938L52.2262 64.1907L55.8529 63.4583L56.8825 68.6573C56.9934 69.2063 57.2099 69.6046 57.532 69.8524C57.8645 70.0845 58.2791 70.1504 58.7757 70.0501C59.3116 69.9419 59.6876 69.6483 59.9037 69.1694C60.1303 68.6748 60.1775 68.1007 60.0456 67.4472L60.0495 67.4668L59.1348 62.8363L62.8204 62.092Z" fill="#2E3881"/>
<path d="M69.9805 60.1302C70.4315 60.0104 70.907 60.0083 71.4067 60.1239C71.9031 60.2266 72.3735 60.4396 72.8181 60.763L72.28 64.1134C71.7694 63.6972 71.1919 63.5746 70.5476 63.7458C69.8517 63.9306 69.3966 64.3205 69.1821 64.9155C68.9771 65.4942 68.9979 66.3509 69.2441 67.4857L70.2298 71.1971L66.6344 72.152L63.8979 61.8492L67.4934 60.8943L67.7295 61.7834C67.9953 61.3818 68.3249 61.039 68.7186 60.7551C69.1217 60.4549 69.5423 60.2466 69.9805 60.1302Z" fill="#2E3881"/>
<path d="M93.3286 63.2026L89.4635 55.0861L91.1712 64.1089L87.4834 65.658L82.1834 58.7734L85.2593 66.3537L81.5792 67.9214L75.7078 53.9445L78.4328 52.995L81.2927 51.9021L86.4717 58.4471L84.7128 50.3353L88.2899 48.8326L90.4842 47.9108L96.9622 61.5244L93.3286 63.2026Z" fill="#2E3881"/>
<path d="M105.719 56.3639L105.213 55.5715C105.065 56.0206 104.811 56.4636 104.453 56.9004C104.095 57.3372 103.676 57.7013 103.198 57.9925C102.446 58.4502 101.627 58.6682 100.739 58.6465C99.8451 58.6135 98.9951 58.3584 98.1893 57.8811C97.3836 57.4039 96.7242 56.7439 96.211 55.9012C95.6909 55.0471 95.4095 54.1491 95.3668 53.2073C95.3241 52.2654 95.5173 51.3906 95.9465 50.5829C96.3801 49.7569 97.007 49.0942 97.8269 48.5949C98.271 48.3245 98.7318 48.1454 99.2091 48.0577C99.6979 47.963 100.141 47.9739 100.54 48.0902L100.093 47.3556L102.929 45.629L108.845 54.4605L105.719 56.3639ZM102.062 54.8203C102.358 54.64 102.588 54.3755 102.75 54.0269C102.912 53.6782 102.983 53.3073 102.962 52.9142C102.935 52.5096 102.817 52.1365 102.609 51.7948C102.324 51.3279 101.935 51.0343 101.44 50.9141C100.95 50.7755 100.477 50.8449 100.021 51.1223C99.5204 51.4274 99.1894 51.8709 99.0286 52.4528C98.8677 53.0346 98.9364 53.5704 99.2346 54.0601C99.4149 54.3562 99.6714 54.5981 100.004 54.7857C100.348 54.9664 100.703 55.0624 101.069 55.0737C101.447 55.0781 101.778 54.9936 102.062 54.8203Z" fill="#2E3881"/>
<path d="M111.825 43.7077C111.181 43.8122 110.642 43.947 110.208 44.1123C109.766 44.2676 109.385 44.4707 109.067 44.7218C108.769 44.9572 108.556 45.1981 108.427 45.4446C108.309 45.6831 108.305 45.872 108.415 46.0112C108.611 46.2598 109.057 46.1095 109.753 45.5603C110.767 44.7599 111.715 44.335 112.595 44.2855C113.476 44.236 114.195 44.5643 114.752 45.2703C115.176 45.8073 115.399 46.4378 115.422 47.162C115.447 47.8684 115.282 48.5795 114.927 49.2952C114.582 50.0031 114.076 50.6199 113.41 51.1456C112.754 51.6635 112.033 52.0385 111.248 52.2706C110.455 52.4928 109.724 52.5373 109.054 52.4043L109.219 49.5151C109.623 49.5357 110.025 49.484 110.428 49.36C110.822 49.2262 111.179 49.0337 111.497 48.7826C111.805 48.5394 112.025 48.2857 112.155 48.0215C112.287 47.7395 112.295 47.5239 112.177 47.3747C112.083 47.2554 111.947 47.2258 111.768 47.2859C111.59 47.3461 111.336 47.5056 111.008 47.7645C110.956 47.8215 110.871 47.8971 110.752 47.9913C110.254 48.3836 109.696 48.6469 109.076 48.7812C108.458 48.8978 107.865 48.873 107.299 48.707C106.732 48.541 106.276 48.2392 105.931 47.8017C105.57 47.3443 105.387 46.7951 105.381 46.1541C105.375 45.5131 105.537 44.8693 105.866 44.2226C106.187 43.566 106.636 43.0102 107.212 42.5551C107.789 42.1 108.456 41.7593 109.213 41.5329C109.98 41.2987 110.763 41.1971 111.562 41.2282L111.825 43.7077Z" fill="#2E3881"/>
<path d="M118.333 32.5345L125.503 39.578L122.973 42.1533L122.309 41.5009C122.349 41.9842 122.273 42.4775 122.08 42.9808C121.879 43.4752 121.578 43.9258 121.179 44.3324C120.265 45.2631 119.269 45.6616 118.193 45.5279C117.108 45.3853 115.978 44.7191 114.803 43.5294L111.116 39.8271L113.579 37.3196L117.158 40.8616C117.537 41.2344 117.919 41.4325 118.305 41.4559C118.69 41.4615 119.051 41.2925 119.389 40.9492C119.753 40.5787 119.892 40.1475 119.807 39.6556C119.722 39.1458 119.453 38.669 119.002 38.2252L119.015 38.2385L115.83 35.0827L118.333 32.5345Z" fill="#2E3881"/>
<path d="M131.004 32.9861L125.926 32.7118L129.067 35.1407L126.938 37.985L114.778 28.6761L116.81 25.7092L123.693 31.0024L122.303 27.0669L124.832 24.1696L126.674 29.2648L133.359 29.5968L131.004 32.9861Z" fill="#2E3881"/>
</g>
</g>
</svg>
