<svg width="109" height="95" viewBox="0 0 109 95" fill="none" xmlns="http://www.w3.org/2000/svg">
<g filter="url(#filter0_dd_248_69)">
<path d="M33.1108 63.9975C33.5043 64.1938 33.8987 64.461 34.2938 64.799C35.0537 65.4491 35.6062 66.2287 35.9513 67.1381C36.2964 68.0474 36.3971 68.9758 36.2534 69.9232C36.0995 70.8619 35.6933 71.7163 35.0345 72.4863C34.5405 73.0638 33.9307 73.5511 33.2051 73.948C32.4693 74.3363 31.6944 74.5858 30.8803 74.6965C30.0647 74.7884 29.3068 74.7104 28.6066 74.4623L29.0887 70.4529C29.4518 70.6232 29.8423 70.659 30.2602 70.5603C30.6679 70.4528 31.0018 70.2472 31.2618 69.9432C31.5565 69.5987 31.6733 69.2161 31.6121 68.7953C31.5495 68.3557 31.3206 67.9669 30.9255 67.6289C30.8343 67.5509 30.6599 67.4368 30.4024 67.2866L26.0224 64.9611L23.0298 68.244L20.7212 65.5585L27.1813 58.7145L29.9143 60.6577L28.8828 61.8019L33.1108 63.9975Z" fill="#2E3881"/>
<path d="M39.1688 52.4266L46.692 59.8655L44.0202 62.5676L43.3233 61.8786C43.3639 62.3875 43.282 62.9065 43.0775 63.4356C42.8636 63.9554 42.5457 64.4286 42.1239 64.8552C41.1583 65.8318 40.1093 66.2478 38.9771 66.1033C37.8355 65.9495 36.6482 65.2443 35.4155 63.9879L31.5468 60.0781L34.1483 57.4471L37.9029 61.1878C38.3011 61.5816 38.703 61.7915 39.1086 61.8175C39.514 61.8246 39.8949 61.648 40.2511 61.2878C40.6355 60.899 40.7838 60.4456 40.696 59.9276C40.6081 59.3907 40.3272 58.8878 39.8531 58.4191L39.8673 58.4332L36.5251 55.1002L39.1688 52.4266Z" fill="#2E3881"/>
<path d="M44.7328 47.3303C45.0804 47.019 45.5032 46.8015 46.001 46.6779C46.4899 46.5444 47.0058 46.5209 47.5487 46.6075L48.5885 49.8376C47.9447 49.6982 47.3744 49.8508 46.8778 50.2955C46.3414 50.7758 46.1125 51.3297 46.1912 51.9573C46.2709 52.566 46.6778 53.3203 47.4118 54.22L49.9734 57.0808L47.202 59.5623L40.0911 51.6206L42.8625 49.1391L43.4762 49.8245C43.5309 49.346 43.6693 48.8909 43.8914 48.4594C44.1146 48.009 44.395 47.6327 44.7328 47.3303Z" fill="#2E3881"/>
<path d="M56.1567 38.0292L62.7676 46.2895L59.8008 48.6639L59.1884 47.8988C59.1698 48.4089 59.0283 48.915 58.7639 49.4169C58.4913 49.9083 58.1207 50.3415 57.6522 50.7164C56.58 51.5746 55.49 51.8663 54.3821 51.5917C53.266 51.3066 52.1684 50.4687 51.0895 49.0779L47.6997 44.7463L50.5884 42.4344L53.8845 46.5848C54.2344 47.022 54.6093 47.2771 55.0091 47.3499C55.411 47.4039 55.8098 47.2727 56.2053 46.9561C56.6321 46.6145 56.832 46.1813 56.8048 45.6566C56.7797 45.1131 56.5589 44.5811 56.1423 44.0606L56.1548 44.0762L53.2211 40.3786L56.1567 38.0292Z" fill="#2E3881"/>
<path d="M65.2009 36.041C64.5195 36.1235 63.9468 36.2424 63.483 36.3977C63.0113 36.5422 62.6027 36.7397 62.2574 36.9902C61.9336 37.2251 61.699 37.4694 61.5536 37.7231C61.419 37.969 61.4065 38.1675 61.5161 38.3186C61.7119 38.5884 62.1875 38.4493 62.943 37.9013C64.0438 37.1027 65.0584 36.6961 65.9868 36.6816C66.9151 36.667 67.6572 37.0429 68.2131 37.8092C68.6359 38.392 68.8439 39.0647 68.837 39.8273C68.8332 40.5714 68.6294 41.3122 68.2256 42.0499C67.8326 42.7797 67.2745 43.4069 66.5514 43.9315C65.8391 44.4482 65.0652 44.8119 64.2298 45.0227C63.3865 45.2226 62.6155 45.2383 61.9167 45.0698L62.213 42.0382C62.6364 42.0769 63.0624 42.0397 63.491 41.9265C63.9116 41.8025 64.2947 41.6153 64.64 41.3647C64.9746 41.122 65.2161 40.8645 65.3644 40.5922C65.5157 40.3012 65.5327 40.0748 65.4152 39.9129C65.3213 39.7834 65.1792 39.7464 64.989 39.8021C64.7987 39.8577 64.5255 40.0147 64.1694 40.2731C64.1124 40.3309 64.0192 40.4067 63.8897 40.5007C63.3501 40.8921 62.7513 41.1453 62.0934 41.2602C61.4384 41.3564 60.8165 41.3052 60.2276 41.1065C59.6387 40.9077 59.172 40.5709 58.8275 40.096C58.4674 39.5996 58.298 39.0141 58.3194 38.3397C58.3408 37.6653 58.5382 36.995 58.9115 36.3289C59.277 35.652 59.7727 35.0864 60.3987 34.6324C61.0246 34.1783 61.7407 33.8483 62.5467 33.6424C63.3635 33.4287 64.1915 33.3552 65.0305 33.4219L65.2009 36.041Z" fill="#2E3881"/>
<path d="M76.5547 36.1008L76.0456 35.3668C75.9214 35.7986 75.6971 36.2283 75.3727 36.656C75.0483 37.0837 74.6644 37.4445 74.2209 37.7383C73.524 38.2001 72.7539 38.4368 71.9108 38.4485C71.0606 38.4496 70.2444 38.2383 69.4621 37.8145C68.6799 37.3907 68.0299 36.7882 67.5122 36.0068C66.9875 35.2149 66.6877 34.3726 66.6129 33.4801C66.5381 32.5875 66.6898 31.7501 67.0679 30.9677C67.4496 30.1678 68.0205 29.516 68.7808 29.0122C69.1926 28.7394 69.6235 28.5526 70.0734 28.452C70.534 28.3444 70.9556 28.3386 71.3382 28.4345L70.8869 27.7534L73.5161 26.0113L79.4531 34.1802L76.5547 36.1008ZM73.0278 34.7681C73.3023 34.5862 73.5103 34.3268 73.6518 33.99C73.7932 33.6531 73.8469 33.2984 73.8129 32.926C73.7718 32.5429 73.6463 32.193 73.4364 31.8762C73.1495 31.4433 72.7691 31.1788 72.2951 31.0826C71.8247 30.9688 71.3783 31.0519 70.9559 31.3317C70.4913 31.6396 70.1932 32.0726 70.0617 32.6308C69.9301 33.189 70.0148 33.6952 70.3156 34.1492C70.4975 34.4237 70.7498 34.644 71.0726 34.8101C71.4059 34.9691 71.7464 35.0473 72.0942 35.0448C72.4526 35.0353 72.7638 34.943 73.0278 34.7681Z" fill="#2E3881"/>
<path d="M80.7745 21.2909C81.5737 20.8011 82.3709 20.6839 83.1663 20.9393C83.955 21.1838 84.6364 21.7987 85.2105 22.784L88.6179 28.5621L85.6533 30.3789L83.3364 26.562C82.8533 25.7736 82.4011 25.2782 81.9799 25.0758C81.5695 24.8668 81.1592 24.888 80.7488 25.1395C80.414 25.3447 80.1819 25.6206 80.0527 25.9672C79.9342 26.3072 79.9903 26.726 80.2209 27.2235L83.1262 31.9277L80.194 33.7247L74.9023 25.0902L77.7723 23.2645L78.2786 24.0907C78.5236 23.5691 78.8685 23.0532 79.3134 22.5429C79.7583 22.0325 80.2453 21.6152 80.7745 21.2909Z" fill="#2E3881"/>
</g>
<defs>
<filter id="filter0_dd_248_69" x="0.721191" y="0.807983" width="107.897" height="93.9258" filterUnits="userSpaceOnUse" color-interpolation-filters="sRGB">
<feFlood flood-opacity="0" result="BackgroundImageFix"/>
<feColorMatrix in="SourceAlpha" type="matrix" values="0 0 0 0 0 0 0 0 0 0 0 0 0 0 0 0 0 0 127 0" result="hardAlpha"/>
<feOffset dy="4"/>
<feGaussianBlur stdDeviation="4"/>
<feComposite in2="hardAlpha" operator="out"/>
<feColorMatrix type="matrix" values="0 0 0 0 0.356863 0 0 0 0 0.423529 0 0 0 0 0.917647 0 0 0 1 0"/>
<feBlend mode="normal" in2="BackgroundImageFix" result="effect1_dropShadow_248_69"/>
<feColorMatrix in="SourceAlpha" type="matrix" values="0 0 0 0 0 0 0 0 0 0 0 0 0 0 0 0 0 0 127 0" result="hardAlpha"/>
<feOffset/>
<feGaussianBlur stdDeviation="10"/>
<feComposite in2="hardAlpha" operator="out"/>
<feColorMatrix type="matrix" values="0 0 0 0 0.745098 0 0 0 0 0.8 0 0 0 0 1 0 0 0 1 0"/>
<feBlend mode="normal" in2="effect1_dropShadow_248_69" result="effect2_dropShadow_248_69"/>
<feBlend mode="normal" in="SourceGraphic" in2="effect2_dropShadow_248_69" result="shape"/>
</filter>
</defs>
</svg>
